<svg id="Capa_1" enable-background="new 0 0 511.526 511.526" height="512" viewBox="0 0 511.526 511.526" width="512" xmlns="http://www.w3.org/2000/svg"><g><path d="m463.455 355.611c-3.869-1.471-8.204.475-9.675 4.347-7.654 20.142-18.229 38.798-31.342 55.499-4.235-5.437-8.68-10.68-13.327-15.714 24.817-33.055 38.428-73.623 38.428-114.993 0-51.765-20.396-100.319-57.431-136.717-2.953-2.902-7.702-2.864-10.605.092-2.904 2.955-2.862 7.703.092 10.606 34.142 33.555 52.944 78.31 52.944 126.019 0 37.371-12.055 74.032-34.074 104.161-22.629-21.659-49.252-38.84-78.672-50.593l5.661-5.487c8.746-8.479 15.782-18.275 20.912-29.117 1.771-3.744.173-8.216-3.571-9.987-3.742-1.771-8.215-.173-9.987 3.571-4.357 9.209-10.345 17.541-17.794 24.762l-7.464 7.234c-3.29 3.19-4.711 7.776-3.801 12.268.91 4.491 4.004 8.162 8.276 9.818 40.019 15.518 74.647 41.665 100.5 75.798-10.473 11.506-22.257 21.905-35.21 31.003-35.715 25.084-77.747 38.343-121.553 38.343-62.031 0-117.919-26.808-156.686-69.447 25.845-34.084 60.443-60.195 100.422-75.697 4.273-1.657 7.368-5.327 8.278-9.819.911-4.492-.511-9.078-3.801-12.268l-7.463-7.234c-19.888-19.279-28.992-46.055-24.976-73.462 4.016-27.406 20.418-50.445 45.001-63.208 24.562-12.751 53.888-12.752 78.449 0 30.696 15.938 48.59 48.572 45.587 83.14-.358 4.127 2.696 7.763 6.822 8.121 4.129.373 7.764-2.696 8.121-6.822 3.531-40.637-17.516-79.006-53.618-97.751-28.89-15-63.384-14.999-92.273 0-28.915 15.013-48.208 42.111-52.931 74.347s5.984 63.729 29.377 86.407l5.661 5.487c-29.424 11.755-56.051 28.938-78.682 50.601-22.017-30.13-34.064-66.798-34.064-104.169 0-40.78 14.282-80.601 40.216-112.127 2.631-3.199 2.171-7.925-1.027-10.557-3.2-2.632-7.925-2.172-10.557 1.027-28.137 34.204-43.632 77.409-43.632 121.656 0 41.37 13.606 81.943 38.423 114.997-4.617 5.002-9.034 10.21-13.244 15.609-28.289-36.006-45.179-81.371-45.179-130.607 0-116.774 95.002-211.776 211.776-211.776 13.044 0 26.152 1.208 38.959 3.589 4.073.758 7.987-1.93 8.745-6.002.757-4.072-1.931-7.987-6.003-8.745-13.709-2.549-27.739-3.842-41.701-3.842-60.574 0-117.522 23.589-160.354 66.421-42.833 42.832-66.421 99.781-66.421 160.355s23.589 117.522 66.421 160.354c42.832 42.833 99.781 66.421 160.354 66.421 46.908 0 91.921-14.201 130.174-41.069 37.39-26.261 65.698-62.628 81.865-105.171 1.472-3.869-.474-8.201-4.346-9.672z"/><path d="m429.512 139.03c-2.663-3.173-7.394-3.584-10.566-.922-3.173 2.664-3.585 7.394-.922 10.566 31.931 38.033 49.516 86.359 49.516 136.076 0 15.329-1.662 30.673-4.938 45.605-.889 4.046 1.672 8.045 5.718 8.934.541.119 1.082.176 1.614.176 3.446 0 6.55-2.39 7.318-5.894 3.509-15.986 5.288-32.412 5.288-48.821-.001-53.239-18.833-104.99-53.028-145.72z"/><path d="m130.9 139.308c-3.141 2.7-3.499 7.436-.798 10.577 1.483 1.726 3.581 2.611 5.691 2.611 1.731 0 3.47-.596 4.886-1.812 32.037-27.542 72.908-42.709 115.084-42.709 16.633 0 33.114 2.325 48.987 6.911 3.979 1.148 8.138-1.145 9.286-5.124 1.149-3.979-1.145-8.137-5.123-9.287-17.227-4.976-35.109-7.5-53.15-7.5-45.763-.001-90.107 16.454-124.863 46.333z"/><path d="m383.954 130.893c36.087 0 65.446-29.359 65.446-65.446s-29.359-65.447-65.446-65.447-65.446 29.359-65.446 65.447 29.359 65.446 65.446 65.446zm0-115.893c27.816 0 50.446 22.63 50.446 50.447s-22.63 50.446-50.446 50.446-50.446-22.63-50.446-50.446 22.63-50.447 50.446-50.447z"/></g></svg>